<?xml version="1.0" encoding="UTF-8"?>
<svg id="Layer_1" xmlns="http://www.w3.org/2000/svg" version="1.1" viewBox="0 0 687.1 686.9">
  <!-- Generator: Adobe Illustrator 29.2.1, SVG Export Plug-In . SVG Version: 2.1.0 Build 116)  -->
  <defs>
    <style>
      .st0 {
        fill: #0ae1c8;
      }

      .st1 {
        fill: #18d7b9;
      }

      .st2 {
        fill: #ad5bfe;
      }
    </style>
  </defs>
  <path class="st0" d="M376.4,2.8c.8,0,1.7.2,2.6.3,47.1,5.4,92.5,26,128.4,56.7,1.1.9,2.2,1.8,3.3,2.8,12.1,10.1,22.9,20.9,32.7,33.2.7.9,1.5,1.7,2.2,2.6,48,56.8,53.3,127.5,53.1,198.5v116.8c0,29.4,0,58.7,0,88.1h-161c0-17.9,0-35.9,0-54.4v-175.7c0-32.7-4.6-63.1-28-87.7-17.5-16.7-40.5-26.8-64.8-27.5-26.6.8-51.9,10.5-70.4,30-17.2,20.3-24.4,44.7-24.4,71v60.8c0,12.7,0,25.3-.1,38,0,12.3,0,24.6-.1,36.9v20.3c-.1,29.4-.2,58.8-.3,88.1H90.4c0-43.3-.1-74-.1-92.2v-147.4c-.3-71.1,22.1-134.7,70.7-186.7.7-.7,1.3-1.4,1.9-2.1,4.3-4.6,8.9-8.7,13.7-12.8,1-.9,2.1-1.8,3.1-2.7,7.9-6.8,16.1-12.7,24.9-18.3.6-.4,1.2-.8,1.9-1.2C240,17.2,276.4,5.6,315.6,1.4c1.1-.1,2.3-.3,3.5-.4,19.4-1.9,39.2-.7,58.5,1.4l-1.2.4Z"/>
  <path class="st2" d="M42.1,533.9h595c22.7,0,36.7,2.6,42.2,7.8,7,7.3,7.9,15.6,7.8,25.4v90c0,7.6-1.3,15.6-6.5,21.4-12.6,11.7-34,7.9-50,7.9H60.8c-7.4,0-14.8,0-22.3,0h-3c-2.9,0-5.7,0-8.6-.2h-2.5c-7.1-.3-12.9-2.9-18.1-7.8-7.8-12-6.2-27-6.1-40.8v-55.6c0-21.4,2.3-34.6,7-39.6,9.9-9.1,21.6-8.2,34.4-8.2l.5-.2Z"/>
  <path class="st1" d="M0,0"/>
  <path class="st1" d="M0,0"/>
  <path class="st1" d="M0,0"/>
  <path class="st1" d="M0,0"/>
  <path class="st1" d="M0,0"/>
  <path class="st1" d="M0,0"/>
  <path class="st1" d="M0,0"/>
  <path class="st1" d="M0,0"/>
  <path class="st1" d="M0,0"/>
  <path class="st1" d="M0,0"/>
  <path class="st1" d="M0,0"/>
  <path class="st1" d="M0,0"/>
  <path class="st1" d="M0,0"/>
  <path class="st1" d="M0,0"/>
  <path class="st1" d="M0,0"/>
  <path class="st1" d="M0,0"/>
  <path class="st1" d="M0,0"/>
  <path class="st1" d="M0,0"/>
  <path class="st1" d="M0,0"/>
  <path class="st1" d="M0,0"/>
  <path class="st1" d="M0,0"/>
  <path class="st1" d="M0,0"/>
  <path class="st1" d="M0,0"/>
  <path class="st1" d="M0,0"/>
  <path class="st1" d="M0,0"/>
  <path class="st1" d="M0,0"/>
  <path class="st1" d="M0,0"/>
  <path class="st1" d="M0,0"/>
  <path class="st1" d="M0,0"/>
  <path class="st1" d="M0,0"/>
  <path class="st1" d="M0,0"/>
  <path class="st1" d="M0,0"/>
  <path class="st1" d="M0,0"/>
  <path class="st1" d="M0,0"/>
  <path class="st1" d="M0,0"/>
  <path class="st1" d="M0,0"/>
  <path class="st1" d="M0,0"/>
  <path class="st1" d="M0,0"/>
  <path class="st1" d="M0,0"/>
  <path class="st1" d="M0,0"/>
  <path class="st1" d="M0,0"/>
  <path class="st1" d="M0,0"/>
  <path class="st1" d="M0,0"/>
  <path class="st1" d="M0,0"/>
  <path class="st1" d="M0,0"/>
  <path class="st1" d="M0,0"/>
  <path class="st1" d="M0,0"/>
  <path class="st1" d="M0,0"/>
  <path class="st1" d="M0,0"/>
  <path class="st1" d="M0,0"/>
  <path class="st1" d="M0,0"/>
  <path class="st1" d="M0,0"/>
  <path class="st1" d="M0,0"/>
  <path class="st1" d="M0,0"/>
  <path class="st1" d="M0,0"/>
  <path class="st1" d="M0,0"/>
  <path class="st1" d="M0,0"/>
  <path class="st1" d="M0,0"/>
</svg>