<?xml version="1.0" encoding="UTF-8"?>
<svg id="Layer_1" xmlns="http://www.w3.org/2000/svg" version="1.1" viewBox="0 0 1024 1024">
  <!-- Generator: Adobe Illustrator 29.2.1, SVG Export Plug-In . SVG Version: 2.1.0 Build 116)  -->
  <defs>
    <style>
      .st0 {
        fill: #0ae1c8;
      }

      .st1 {
        fill: #18d7b9;
      }

      .st2 {
        fill: #ad5bfe;
      }
    </style>
  </defs>
  <path class="st0" d="M544.5,171.2c.8,0,1.7.2,2.6.3,47.1,5.4,92.5,26,128.4,56.7,1.1.9,2.2,1.8,3.3,2.8,12.1,10.1,22.9,20.9,32.7,33.2.7.9,1.5,1.7,2.2,2.6,48,56.8,53.3,127.5,53.1,198.5,0,7.1,0,14.2,0,21.4,0,12.7,0,25.4,0,38.1,0,12.3,0,24.6,0,36.9,0,.8,0,1.5,0,2.3,0,6,0,12.1,0,18.1,0,29.4,0,58.7-.1,88.1h-161c0-17.9,0-35.9-.1-54.4,0-11.4,0-22.8,0-34.2,0-6,0-12,0-18q0-1.1,0-2.3c0-12.1,0-24.1,0-36.2,0-12.4,0-24.8,0-37.2,0-7.6,0-15.3,0-22.9,0-5.9,0-11.8,0-17.7,0-2.4,0-4.8,0-7.2,0-32.7-4.6-63.1-28-87.7-17.5-16.7-40.5-26.8-64.8-27.5-26.6.8-51.9,10.5-70.4,30-17.2,20.3-24.4,44.7-24.4,71,0,1,0,2.1,0,3.2,0,3.5,0,7,0,10.5,0,2.5,0,5,0,7.5,0,5.4,0,10.8,0,16.2,0,7.8,0,15.6,0,23.4,0,12.7,0,25.3-.1,38,0,12.3,0,24.6-.1,36.9,0,.8,0,1.5,0,2.3,0,6,0,12,0,18-.1,29.4-.2,58.8-.3,88.1h-159q-.1-64.9-.1-92.2c0-6.2,0-12.5,0-18.7,0-.8,0-1.6,0-2.4,0-12.6,0-25.1,0-37.7,0-12.9,0-25.8,0-38.8,0-8,0-15.9,0-23.9,0-6.1,0-12.3,0-18.4,0-2.5,0-5,0-7.5-.3-71.1,22.1-134.7,70.7-186.7q1-1,1.9-2.1c4.3-4.6,8.9-8.7,13.7-12.8,1-.9,2.1-1.8,3.1-2.7,7.9-6.8,16.1-12.7,24.9-18.3q.9-.6,1.9-1.2c33.5-21,69.9-32.6,109.1-36.8,1.1-.1,2.3-.3,3.5-.4,19.4-1.9,39.2-.7,58.5,1.4Z"/>
  <path class="st2" d="M210.2,702.3c1.1,0,2.1,0,3.2,0,3.6,0,7.1,0,10.7,0,2.6,0,5.2,0,7.8,0,5.6,0,11.3,0,16.9,0,8.4,0,16.7,0,25.1,0,15.8,0,31.6,0,47.4,0,12.2,0,24.4,0,36.6,0,3.5,0,7,0,10.6,0q1.3,0,2.6,0c24.6,0,49.2,0,73.8,0q1.4,0,2.8,0c4.7,0,9.4,0,14.1,0,.9,0,1.9,0,2.8,0,1.9,0,3.8,0,5.7,0,29.3,0,58.7,0,88,0,33,0,66,0,98.9,0,3.5,0,7,0,10.6,0,.9,0,1.7,0,2.6,0,13.9,0,27.9,0,41.8,0,14,0,28,0,42,0,8.3,0,16.6,0,24.9,0,6.2,0,12.4,0,18.6,0,2.5,0,5,0,7.5,0q34,0,42.2,7.8c7,7.3,7.9,15.6,7.8,25.4q0,1.6,0,3.2c0,3.4,0,6.9,0,10.3,0,2.4,0,4.8,0,7.2,0,5,0,10.1,0,15.1,0,6.4,0,12.9,0,19.3,0,5,0,9.9,0,14.9,0,2.4,0,4.7,0,7.1,0,3.3,0,6.6,0,10,0,1,0,1.9,0,2.9,0,7.6-1.3,15.6-6.5,21.4-12.6,11.7-34,7.9-50,7.9-2.5,0-5.1,0-7.6,0-5.5,0-11,0-16.5,0-8.2,0-16.4,0-24.6,0-14.6,0-29.3,0-43.9,0-12.8,0-25.6,0-38.5,0q-1.3,0-2.6,0c-3.5,0-6.9,0-10.4,0-32.4,0-64.8,0-97.2,0-28.8,0-57.5,0-86.3,0-32.3,0-64.7,0-97,0-3.5,0-6.9,0-10.4,0-.8,0-1.7,0-2.6,0-12.8,0-25.6,0-38.4,0-14.6,0-29.1,0-43.7,0-8.1,0-16.3,0-24.4,0-6.1,0-12.2,0-18.3,0-2.5,0-4.9,0-7.4,0-7.4,0-14.8,0-22.3-.1-1,0-2,0-3,0-2.9,0-5.7,0-8.6-.2q-1.2,0-2.5,0c-7.1-.3-12.9-2.9-18.1-7.8-7.8-12-6.2-27-6.1-40.8,0-2.1,0-4.2,0-6.3,0-4.4,0-8.8,0-13.2,0-5.6,0-11.2,0-16.9,0-4.3,0-8.7,0-13,0-2.1,0-4.1,0-6.2q0-32.1,7-39.6c9.9-9.1,21.6-8.2,34.4-8.2Z"/>
  <path class="st1" d="M0,0"/>
  <path class="st1" d="M0,0"/>
  <path class="st1" d="M0,0"/>
  <path class="st1" d="M0,0"/>
  <path class="st1" d="M0,0"/>
  <path class="st1" d="M0,0"/>
  <path class="st1" d="M0,0"/>
  <path class="st1" d="M0,0"/>
  <path class="st1" d="M0,0"/>
  <path class="st1" d="M0,0"/>
  <path class="st1" d="M0,0"/>
  <path class="st1" d="M0,0"/>
  <path class="st1" d="M0,0"/>
  <path class="st1" d="M0,0"/>
  <path class="st1" d="M0,0"/>
  <path class="st1" d="M0,0"/>
  <path class="st1" d="M0,0"/>
  <path class="st1" d="M0,0"/>
  <path class="st1" d="M0,0"/>
  <path class="st1" d="M0,0"/>
  <path class="st1" d="M0,0"/>
  <path class="st1" d="M0,0"/>
  <path class="st1" d="M0,0"/>
  <path class="st1" d="M0,0"/>
  <path class="st1" d="M0,0"/>
  <path class="st1" d="M0,0"/>
  <path class="st1" d="M0,0"/>
  <path class="st1" d="M0,0"/>
  <path class="st1" d="M0,0"/>
  <path class="st1" d="M0,0"/>
  <path class="st1" d="M0,0"/>
  <path class="st1" d="M0,0"/>
  <path class="st1" d="M0,0"/>
  <path class="st1" d="M0,0"/>
  <path class="st1" d="M0,0"/>
  <path class="st1" d="M0,0"/>
  <path class="st1" d="M0,0"/>
  <path class="st1" d="M0,0"/>
  <path class="st1" d="M0,0"/>
  <path class="st1" d="M0,0"/>
  <path class="st1" d="M0,0"/>
  <path class="st1" d="M0,0"/>
  <path class="st1" d="M0,0"/>
  <path class="st1" d="M0,0"/>
  <path class="st1" d="M0,0"/>
  <path class="st1" d="M0,0"/>
  <path class="st1" d="M0,0"/>
  <path class="st1" d="M0,0"/>
  <path class="st1" d="M0,0"/>
  <path class="st1" d="M0,0"/>
  <path class="st1" d="M0,0"/>
  <path class="st1" d="M0,0"/>
  <path class="st1" d="M0,0"/>
  <path class="st1" d="M0,0"/>
  <path class="st1" d="M0,0"/>
  <path class="st1" d="M0,0"/>
  <path class="st1" d="M0,0"/>
  <path class="st1" d="M0,0"/>
</svg>